<?xml version="1.0" encoding="utf-8"?>
<!-- Generator: Adobe Illustrator 23.0.6, SVG Export Plug-In . SVG Version: 6.00 Build 0)  -->
<svg width="371px" height="78px" version="1.1" id="Layer_1" xmlns="http://www.w3.org/2000/svg" xmlns:xlink="http://www.w3.org/1999/xlink" x="0px" y="0px"
	 viewBox="0 0 371 78" style="enable-background:new 0 0 371 78;" xml:space="preserve">
<style type="text/css">
	.st0{fill:none;stroke:#16A859;stroke-width:2;stroke-linecap:round;}
	.st1{fill:none;stroke:#16A859;stroke-width:2;stroke-linecap:round;stroke-linejoin:round;}
	.st2{fill-rule:evenodd;clip-rule:evenodd;fill:#1DA75A;}
</style>
<title>Group 18</title>
<desc>Created with Sketch.</desc>
<g id="Page-2">
	<g id="Homepage" transform="translate(-159.000000, -81.000000)">
		<g id="Group-18" transform="translate(160.000000, 82.000000)">
			<g id="Group-15-Copy">
				<path id="Stroke-1" class="st0" d="M63.4,18.4c5.3,6,8.4,13.8,8.4,22.4c0,19.2-16.1,34.7-35.9,34.7C16.1,75.5,0,60,0,40.8
					C0,21.6,16.1,6,35.9,6h3.3"/>
				<path id="Stroke-3" class="st1" d="M70.3,6.2c0,0-2,1.7-4.5,1.7c-2.5,0-4.5-1.7-4.5-1.7s2-1.7,4.5-1.7
					C68.3,4.5,70.3,6.2,70.3,6.2z"/>
				<path id="Stroke-5" class="st1" d="M60.2,0c0,0-0.2,2.7-2,4.4c-1.8,1.8-4.4,2-4.4,2s0.2-2.7,2-4.4C57.5,0.2,60.2,0,60.2,0z"/>
				<path id="Stroke-7" class="st1" d="M60.2,12.8c0,0-0.2-2.7-2-4.4c-1.8-1.8-4.4-2-4.4-2s0.2,2.7,2,4.4
					C57.5,12.6,60.2,12.8,60.2,12.8z"/>
				<path id="Stroke-9" class="st1" d="M51.9,0c0,0-0.2,2.7-2,4.4c-1.8,1.8-4.4,2-4.4,2s0.2-2.7,2-4.4C49.2,0.2,51.9,0,51.9,0z"/>
				<path id="Stroke-11" class="st1" d="M51.9,12.8c0,0-0.2-2.7-2-4.4c-1.8-1.8-4.4-2-4.4-2s0.2,2.7,2,4.4
					C49.2,12.6,51.9,12.8,51.9,12.8z"/>
				<path id="Stroke-13" class="st0" d="M18.2,60.8c4.8,4.3,11.1,6.9,18.1,6.9c6.8,0,13-2.5,17.8-6.7"/>
				<path id="Stroke-15" class="st0" d="M50.2,57.1c-3.8,3.2-8.6,5.1-14,5.1c-5.4,0-10.4-2-14.2-5.3"/>
				<path id="Stroke-17" class="st0" d="M22,56.9c3.8,3.3,8.8,5.3,14.2,5.3c5.3,0,10.2-1.9,14-5.1"/>
				<path id="Stroke-19" class="st0" d="M46.3,53.3c-2.8,2.2-6.3,3.5-10.1,3.5c-3.9,0-7.6-1.4-10.4-3.7"/>
				<path id="Stroke-21" class="st1" d="M25.9,53.1L25.9,53.1c2.8,2.3,6.4,3.7,10.4,3.7c3.8,0,7.3-1.3,10.1-3.5"/>
				<path id="Stroke-23" class="st1" d="M42.9,33.6l0,0.2c0.1,4.4,1.9,8.6,5.1,11.7l8.8,8.8c5.8-5.8,5.8-15.1,0-20.9L36.1,12.7
					L15.4,33.4c-5.8,5.8-5.8,15.1,0,20.9l8.8-8.8c3.1-3.1,4.9-7.3,5.1-11.7l0-0.2"/>
				<path id="Stroke-25" class="st1" d="M35.9,40.8l8.2,8.9"/>
				<path id="Stroke-27" class="st1" d="M35.9,40.8l-8.2,8.9"/>
				<path id="Stroke-29" class="st1" d="M35.9,42.2v10"/>
			</g>
			<g id="Group-17" transform="translate(83.000000, 24.000000)">
				<g id="Group-20">
					<path id="Fill-31-Copy" class="st2" d="M9.1,22.8c-1.4,0-2.6-0.2-3.8-0.7s-2.1-1.1-2.9-2c-0.8-0.9-1.4-2-1.8-3.4
						C0.2,15.4,0,13.8,0,12c0-1.8,0.2-3.4,0.6-4.7c0.4-1.4,1-2.5,1.8-3.5c0.8-0.9,1.7-1.7,2.9-2.1s2.4-0.7,3.8-0.7
						c1.9,0,3.5,0.4,4.7,1.2c1.2,0.8,2.2,2,3,3.7l-3.4,1.8c-0.3-1-0.8-1.7-1.5-2.3c-0.7-0.6-1.6-0.9-2.8-0.9C7.6,4.5,6.4,5,5.5,6
						c-0.9,1-1.3,2.4-1.3,4.2v3.3c0,1.8,0.4,3.3,1.3,4.2c0.9,1,2.1,1.5,3.5,1.5c1.2,0,2.2-0.3,2.9-1c0.8-0.6,1.3-1.4,1.6-2.4
						l3.2,1.9c-0.8,1.6-1.8,2.8-3,3.7C12.5,22.4,11,22.8,9.1,22.8"/>
					<path id="Fill-33-Copy" class="st2" d="M29.6,6.6h3.6l-6.3,18.7c-0.2,0.6-0.4,1.1-0.7,1.5c-0.3,0.4-0.5,0.8-0.9,1
						c-0.3,0.3-0.8,0.5-1.2,0.6c-0.5,0.1-1,0.2-1.7,0.2h-2.3v-3.1H23l0.7-2.2L18,6.6h3.8l2.7,8.4l1,4h0.2l1.1-4L29.6,6.6z"/>
					<path id="Fill-35-Copy" class="st2" d="M42.9,19.6c1,0,1.8-0.3,2.4-1c0.6-0.7,0.9-1.6,0.9-2.7v-2.7c0-1.1-0.3-2-0.9-2.7
						c-0.6-0.7-1.4-1-2.4-1c-0.9,0-1.7,0.2-2.3,0.7c-0.6,0.5-0.9,1.1-0.9,1.9v5c0,0.8,0.3,1.5,0.9,1.9
						C41.2,19.4,41.9,19.6,42.9,19.6L42.9,19.6z M35.8,0h3.9v9.2h0.1c0.3-0.9,0.8-1.6,1.6-2.2c0.8-0.5,1.7-0.8,2.7-0.8
						c2,0,3.5,0.7,4.6,2.1c1.1,1.4,1.6,3.5,1.6,6.1c0,2.7-0.5,4.7-1.6,6.2c-1.1,1.4-2.6,2.2-4.6,2.2c-1,0-2-0.3-2.7-0.8
						c-0.8-0.5-1.3-1.3-1.6-2.2h-0.1v2.6h-3.9V0z"/>
					<path id="Fill-37-Copy" class="st2" d="M60.2,9.2c-1,0-1.8,0.3-2.4,1c-0.6,0.7-0.9,1.6-0.9,2.7v0.2h6.4v-0.3
						c0-1.1-0.3-2-0.8-2.7C61.9,9.5,61.2,9.2,60.2,9.2 M60.2,22.8c-1.2,0-2.2-0.2-3.1-0.6c-0.9-0.4-1.7-1-2.3-1.7
						c-0.6-0.7-1.1-1.6-1.5-2.6c-0.3-1-0.5-2.2-0.5-3.4c0-1.3,0.2-2.4,0.5-3.4c0.3-1,0.8-1.9,1.4-2.6c0.6-0.7,1.4-1.3,2.3-1.7
						s1.9-0.6,3.1-0.6c1.2,0,2.3,0.2,3.2,0.6s1.6,1,2.2,1.7c0.6,0.7,1,1.6,1.3,2.5c0.3,1,0.4,2,0.4,3.1v1.3H56.8v0.4
						c0,1.1,0.3,2.1,1,2.8c0.6,0.7,1.6,1,2.9,1c1,0,1.8-0.2,2.4-0.6c0.6-0.4,1.2-0.9,1.6-1.5l2.1,2.3c-0.6,0.9-1.5,1.6-2.6,2.1
						C63,22.6,61.7,22.8,60.2,22.8"/>
					<path id="Fill-39-Copy" class="st2" d="M70.7,22.5V6.6h3.9v3.3h0.2c0.1-0.4,0.3-0.8,0.5-1.2c0.2-0.4,0.5-0.7,0.8-1
						c0.3-0.3,0.7-0.5,1.2-0.7c0.5-0.2,1-0.3,1.6-0.3h0.8v3.7h-1.2c-1.3,0-2.3,0.2-3,0.6c-0.7,0.4-1,1-1,1.9v9.7H70.7z"/>
					<path id="Fill-41-Copy" class="st2" d="M86.7,10.9h5.1c0.8,0,1.4-0.2,1.8-0.6c0.4-0.4,0.7-1,0.7-1.8V7.1c0-0.8-0.2-1.4-0.7-1.8
						c-0.4-0.4-1-0.6-1.8-0.6h-5.1V10.9z M82.8,22.5V1.3h9.5c1,0,1.8,0.2,2.6,0.5c0.8,0.3,1.4,0.8,2,1.3c0.5,0.6,1,1.3,1.2,2.1
						c0.3,0.8,0.4,1.7,0.4,2.7c0,1-0.1,1.9-0.4,2.7c-0.3,0.8-0.7,1.5-1.2,2.1c-0.5,0.6-1.2,1-2,1.3c-0.8,0.3-1.6,0.5-2.6,0.5h-5.5
						v8.1H82.8z"/>
					<path id="Fill-43-Copy" class="st2" d="M107.5,9.2c-1,0-1.8,0.3-2.4,1c-0.6,0.7-0.9,1.6-0.9,2.7v0.2h6.4v-0.3
						c0-1.1-0.3-2-0.8-2.7C109.3,9.5,108.5,9.2,107.5,9.2 M107.6,22.8c-1.2,0-2.2-0.2-3.1-0.6c-0.9-0.4-1.7-1-2.3-1.7
						c-0.6-0.7-1.1-1.6-1.5-2.6c-0.3-1-0.5-2.2-0.5-3.4c0-1.3,0.2-2.4,0.5-3.4c0.3-1,0.8-1.9,1.4-2.6c0.6-0.7,1.4-1.3,2.3-1.7
						s1.9-0.6,3.1-0.6c1.2,0,2.3,0.2,3.2,0.6s1.6,1,2.2,1.7c0.6,0.7,1,1.6,1.3,2.5c0.3,1,0.4,2,0.4,3.1v1.3h-10.5v0.4
						c0,1.1,0.3,2.1,1,2.8c0.6,0.7,1.6,1,2.9,1c1,0,1.8-0.2,2.4-0.6c0.6-0.4,1.2-0.9,1.6-1.5l2.1,2.3c-0.6,0.9-1.5,1.6-2.6,2.1
						C110.3,22.6,109.1,22.8,107.6,22.8"/>
					<path id="Fill-45-Copy" class="st2" d="M123.2,20c0.9,0,1.6-0.2,2.2-0.6c0.6-0.4,0.9-0.9,0.9-1.7v-2.1h-2.5c-2,0-3,0.6-3,1.9
						v0.5c0,0.6,0.2,1.1,0.6,1.4C121.9,19.8,122.5,20,123.2,20L123.2,20z M129.6,22.5c-0.8,0-1.5-0.2-2-0.7c-0.5-0.5-0.8-1.2-0.9-2
						h-0.2c-0.3,1-0.8,1.8-1.6,2.3c-0.8,0.5-1.8,0.8-3,0.8c-1.6,0-2.8-0.4-3.7-1.3c-0.9-0.8-1.3-2-1.3-3.4c0-1.6,0.6-2.8,1.7-3.6
						c1.2-0.8,2.8-1.2,5-1.2h2.7v-1.2c0-0.9-0.2-1.6-0.7-2.1c-0.5-0.5-1.2-0.7-2.2-0.7c-0.9,0-1.6,0.2-2.2,0.6
						c-0.6,0.4-1,0.9-1.4,1.4l-2.3-2.1c0.6-0.9,1.4-1.7,2.3-2.2s2.2-0.8,3.8-0.8c2.1,0,3.7,0.5,4.9,1.5c1.1,1,1.7,2.4,1.7,4.2v7.4
						h1.6v3.1H129.6z"/>
					<path id="Fill-47-Copy" class="st2" d="M141.1,22.8c-1.2,0-2.2-0.2-3.1-0.6c-0.9-0.4-1.7-0.9-2.3-1.7c-0.6-0.7-1.1-1.6-1.4-2.6
						c-0.3-1-0.5-2.2-0.5-3.4s0.2-2.4,0.5-3.4c0.3-1,0.8-1.9,1.4-2.6c0.6-0.7,1.4-1.3,2.3-1.7c0.9-0.4,1.9-0.6,3.1-0.6
						c1.6,0,2.9,0.4,3.9,1.1c1,0.7,1.8,1.7,2.2,2.9l-3.2,1.4c-0.2-0.7-0.5-1.2-1-1.7c-0.5-0.4-1.2-0.7-2-0.7c-1.1,0-1.9,0.3-2.4,1
						c-0.5,0.7-0.8,1.6-0.8,2.7V16c0,1.1,0.3,2,0.8,2.7c0.5,0.7,1.3,1,2.4,1c0.9,0,1.6-0.2,2.1-0.7c0.5-0.5,0.9-1.1,1.2-1.8l3,1.4
						c-0.5,1.4-1.3,2.4-2.4,3.1C143.9,22.5,142.6,22.8,141.1,22.8"/>
					<path id="Fill-49-Copy" class="st2" d="M156.5,9.2c-1,0-1.8,0.3-2.4,1c-0.6,0.7-0.9,1.6-0.9,2.7v0.2h6.4v-0.3
						c0-1.1-0.3-2-0.8-2.7C158.3,9.5,157.5,9.2,156.5,9.2 M156.5,22.8c-1.2,0-2.2-0.2-3.1-0.6c-0.9-0.4-1.7-1-2.3-1.7
						c-0.6-0.7-1.1-1.6-1.5-2.6c-0.3-1-0.5-2.2-0.5-3.4c0-1.3,0.2-2.4,0.5-3.4c0.3-1,0.8-1.9,1.4-2.6c0.6-0.7,1.4-1.3,2.3-1.7
						c0.9-0.4,1.9-0.6,3.1-0.6c1.2,0,2.3,0.2,3.2,0.6c0.9,0.4,1.6,1,2.2,1.7c0.6,0.7,1,1.6,1.3,2.5c0.3,1,0.4,2,0.4,3.1v1.3h-10.5
						v0.4c0,1.1,0.3,2.1,1,2.8c0.6,0.7,1.6,1,2.9,1c1,0,1.8-0.2,2.4-0.6c0.6-0.4,1.2-0.9,1.6-1.5l2.1,2.3c-0.6,0.9-1.5,1.6-2.6,2.1
						C159.3,22.6,158,22.8,156.5,22.8"/>
				</g>
				<g id="Group-19" transform="translate(177.000000, 0.000000)">
					<polygon id="Fill-51-Copy" class="st2" points="0,22.5 0,21 3.1,21 3.1,2.6 0,2.6 0,1.1 7.9,1.1 7.9,2.6 4.9,2.6 4.9,21
						7.9,21 7.9,22.5 					"/>
					<path id="Fill-53-Copy" class="st2" d="M12.6,22.5V6.8h1.7v2.5h0.1c0.3-0.8,0.9-1.5,1.6-2c0.7-0.5,1.7-0.8,2.9-0.8
						c1.6,0,2.9,0.5,3.8,1.6c0.9,1,1.4,2.5,1.4,4.4v10.1h-1.7v-9.8c0-1.6-0.3-2.8-1-3.6C20.7,8.4,19.8,8,18.5,8
						c-0.5,0-1.1,0.1-1.6,0.2c-0.5,0.1-0.9,0.4-1.3,0.6c-0.4,0.3-0.7,0.7-0.9,1.1c-0.2,0.4-0.3,0.9-0.3,1.5v11.1H12.6z"/>
					<path id="Fill-55-Copy" class="st2" d="M33.9,22.9c-1.3,0-2.5-0.3-3.4-0.8c-1-0.5-1.8-1.3-2.5-2.2l1.3-1
						c0.6,0.9,1.3,1.5,2.1,1.9c0.8,0.4,1.7,0.6,2.7,0.6c1.2,0,2.1-0.3,2.7-0.8c0.6-0.5,1-1.3,1-2.2c0-0.8-0.2-1.5-0.7-2
						c-0.5-0.5-1.3-0.8-2.4-1l-1.3-0.2c-0.7-0.1-1.3-0.3-1.9-0.5c-0.6-0.2-1.1-0.5-1.5-0.8c-0.4-0.3-0.7-0.8-1-1.3
						c-0.2-0.5-0.3-1.1-0.3-1.8c0-0.7,0.1-1.4,0.4-1.9c0.3-0.6,0.6-1,1.1-1.4c0.5-0.4,1-0.6,1.7-0.8c0.6-0.2,1.3-0.3,2.1-0.3
						c1.3,0,2.3,0.2,3.2,0.7c0.8,0.5,1.5,1,2.1,1.8l-1.1,1.1c-0.4-0.5-0.9-0.9-1.6-1.4c-0.7-0.4-1.5-0.6-2.6-0.6
						c-1.1,0-2,0.2-2.6,0.7c-0.6,0.5-0.9,1.2-0.9,2.1c0,0.9,0.3,1.6,0.8,2c0.6,0.4,1.4,0.7,2.5,0.9l1.2,0.2c1.6,0.2,2.7,0.7,3.5,1.4
						c0.8,0.7,1.1,1.7,1.1,3c0,1.5-0.5,2.6-1.5,3.4C36.9,22.5,35.6,22.9,33.9,22.9"/>
					<path id="Fill-57-Copy" class="st2" d="M46.3,22.5c-0.6,0-1.1-0.2-1.4-0.5c-0.3-0.3-0.5-0.8-0.5-1.4V8.3h-2.7V6.8h1.7
						c0.4,0,0.7-0.1,0.9-0.3c0.2-0.2,0.2-0.5,0.2-0.9V2.4h1.6v4.4h3.5v1.5h-3.5V21h3.2v1.5H46.3z"/>
					<path id="Fill-59-Copy" class="st2" d="M53.8,22.5h1.7V6.8h-1.7V22.5z M54.6,2.5c-0.4,0-0.7-0.1-0.9-0.3
						c-0.2-0.2-0.3-0.5-0.3-0.8V1.1c0-0.3,0.1-0.6,0.3-0.8C53.9,0.1,54.2,0,54.6,0c0.4,0,0.7,0.1,0.9,0.3c0.2,0.2,0.3,0.5,0.3,0.8
						v0.3c0,0.3-0.1,0.6-0.3,0.8C55.3,2.4,55,2.5,54.6,2.5L54.6,2.5z"/>
					<path id="Fill-61-Copy" class="st2" d="M63.7,22.5c-0.6,0-1.1-0.2-1.4-0.5c-0.3-0.3-0.5-0.8-0.5-1.4V8.3h-2.7V6.8h1.7
						c0.4,0,0.7-0.1,0.9-0.3C61.9,6.4,62,6,62,5.6V2.4h1.6v4.4H67v1.5h-3.5V21h3.2v1.5H63.7z"/>
					<path id="Fill-62-Copy" class="st2" d="M80.7,20h-0.1c-0.1,0.4-0.3,0.7-0.6,1.1c-0.2,0.3-0.5,0.7-0.9,0.9
						c-0.4,0.3-0.8,0.5-1.3,0.6c-0.5,0.2-1.1,0.2-1.7,0.2c-1.6,0-2.9-0.5-3.8-1.6c-0.9-1-1.4-2.5-1.4-4.4V6.8h1.7v9.8
						c0,1.6,0.3,2.8,1,3.6c0.7,0.8,1.7,1.2,2.9,1.2c0.5,0,1.1-0.1,1.5-0.2c0.5-0.1,0.9-0.4,1.3-0.6c0.4-0.3,0.7-0.7,0.9-1.1
						c0.2-0.4,0.3-1,0.3-1.6v-11h1.7v15.7h-1.7V20z"/>
					<path id="Fill-63-Copy" class="st2" d="M90.6,22.5c-0.6,0-1.1-0.2-1.4-0.5c-0.3-0.3-0.5-0.8-0.5-1.4V8.3h-2.7V6.8h1.7
						c0.4,0,0.7-0.1,0.9-0.3c0.2-0.2,0.2-0.5,0.2-0.9V2.4h1.6v4.4h3.5v1.5h-3.5V21h3.2v1.5H90.6z"/>
					<path id="Fill-64-Copy" class="st2" d="M103.4,7.9c-0.7,0-1.4,0.1-2,0.4c-0.6,0.3-1.1,0.7-1.5,1.2c-0.4,0.5-0.8,1.1-1,1.8
						c-0.2,0.7-0.3,1.4-0.3,2.3v0.2h9.5v-0.2c0-0.8-0.1-1.6-0.3-2.3c-0.2-0.7-0.5-1.3-0.9-1.7c-0.4-0.5-0.9-0.8-1.5-1.1
						C104.7,8.1,104.1,7.9,103.4,7.9 M103.4,22.9c-1,0-1.9-0.2-2.8-0.6c-0.8-0.4-1.5-0.9-2.1-1.6c-0.6-0.7-1-1.6-1.4-2.6
						c-0.3-1-0.5-2.2-0.5-3.5c0-1.3,0.2-2.4,0.5-3.5c0.3-1,0.8-1.9,1.4-2.6c0.6-0.7,1.3-1.2,2.1-1.6c0.8-0.4,1.7-0.6,2.8-0.6
						c1,0,1.9,0.2,2.7,0.6c0.8,0.4,1.5,0.9,2,1.6c0.6,0.7,1,1.5,1.3,2.5c0.3,1,0.5,2,0.5,3.2V15H98.5v0.8c0,0.8,0.1,1.6,0.3,2.3
						c0.2,0.7,0.6,1.3,1,1.8c0.4,0.5,1,0.9,1.6,1.2c0.6,0.3,1.3,0.4,2.1,0.4c2.2,0,3.8-1.1,4.7-3.2l1.3,0.9
						c-0.5,1.2-1.2,2.1-2.3,2.8C106.1,22.6,104.9,22.9,103.4,22.9"/>
				</g>
			</g>
		</g>
	</g>
</g>
</svg>
